<svg width="1174" height="213" viewBox="0 0 1174 213" fill="none" xmlns="http://www.w3.org/2000/svg">
<path d="M0 28.79C0 17.8 8.86759 8.86896 19.8573 8.79056L28.0456 8.73215C56.0911 8.63211 112.182 8.23198 168.012 4.73082C223.973 1.22965 279.542 -5.37251 335.503 8.13197C391.333 21.6365 447.424 55.2476 503.255 64.6507C559.215 73.9538 614.785 58.9488 670.745 63.2503C726.576 67.6517 782.667 91.2596 838.497 85.1576C894.458 78.9555 950.027 42.9435 1005.99 29.7391C1061.82 16.6348 1117.91 26.238 1145.95 31.1396L1157.38 33.0949C1166.98 34.7391 1174 43.0646 1174 52.8081V193C1174 204.046 1165.05 213 1154 213H1145.95C1117.91 213 1061.82 213 1005.99 213C950.027 213 894.458 213 838.497 213C782.667 213 726.576 213 670.745 213C614.785 213 559.215 213 503.255 213C447.424 213 391.333 213 335.503 213C279.542 213 223.973 213 168.012 213C112.182 213 56.0911 213 28.0456 213H20C8.95431 213 0 204.046 0 193V28.79Z" fill="#C1EBDC"/>
</svg>
