<svg width="400" height="400" viewBox="0 0 400 400" fill="none" xmlns="http://www.w3.org/2000/svg">
<path d="M246.878 121.876C246.878 128.858 245.364 135.499 242.581 141.505L268.362 186.037C256.79 198.391 241.897 207.57 225.149 212.209L200.002 168.751L166.798 226.125C177.296 229.446 188.429 231.252 200.051 231.252C234.573 231.252 265.384 215.285 285.452 190.236C290.872 183.498 300.687 182.423 307.425 187.795C314.164 193.166 315.238 203.029 309.867 209.768C284.036 241.897 244.436 262.503 200.002 262.503C182.716 262.503 166.115 259.378 150.831 253.665L123.194 301.419C120.899 305.375 117.481 308.597 113.379 310.648L86.3283 324.174C83.8869 325.394 81.0059 325.248 78.711 323.832C76.416 322.416 75 319.877 75 317.191V290.14C75 286.038 76.0742 281.986 78.1739 278.372L107.471 227.737C101.221 222.268 95.4105 216.262 90.2346 209.768C84.8146 203.029 85.9377 193.215 92.676 187.795C99.4144 182.375 109.229 183.498 114.649 190.236C117.432 193.703 120.411 196.974 123.536 200.051L157.423 141.505C154.689 135.548 153.126 128.907 153.126 121.876C153.126 95.9964 174.123 75 200.002 75C225.881 75 246.878 95.9964 246.878 121.876ZM257.132 267.337C273.05 261.087 287.65 252.298 300.54 241.506L321.879 278.372C323.93 281.937 325.053 285.989 325.053 290.14V317.191C325.053 319.877 323.637 322.416 321.342 323.832C319.047 325.248 316.166 325.394 313.724 324.174L286.673 310.648C282.571 308.597 279.153 305.375 276.858 301.419L257.132 267.337ZM200.002 137.501C208.645 137.501 215.627 130.518 215.627 121.876C215.627 113.233 208.645 106.25 200.002 106.25C191.359 106.25 184.377 113.233 184.377 121.876C184.377 130.518 191.359 137.501 200.002 137.501Z" fill="#226F54"/>
</svg>
